<?xml version="1.0" encoding="utf-8"?>
<!-- Generator: Adobe Illustrator 27.3.1, SVG Export Plug-In . SVG Version: 6.00 Build 0)  -->
<svg version="1.1" id="Layer_1" xmlns="http://www.w3.org/2000/svg" xmlns:xlink="http://www.w3.org/1999/xlink" x="0px" y="0px"
	 viewBox="0 0 16 16" style="enable-background:new 0 0 16 16;" xml:space="preserve">
<style type="text/css">
	.st0{fill-rule:evenodd;clip-rule:evenodd;fill:#FFFFFF;}
	.st1{fill-rule:evenodd;clip-rule:evenodd;fill:url(#SVGID_1_);}
	.st2{fill-rule:evenodd;clip-rule:evenodd;fill:url(#SVGID_00000038377960027117700610000004882153065734833302_);}
</style>
<path class="st0" d="M7.63,8.52C6.56,7.27,6.2,5.9,7.44,4.48c0.77-0.89,1.72-1.62,2.62-2.4c0.78-0.68,1.59-1.32,2.41-1.99
	c0,0.07,0.02,0.17,0.01,0.27c-0.05,0.36-0.11,0.71-0.15,1.07c-0.09,0.7-0.41,1.19-1.04,1.57c-0.93,0.56-1.8,1.23-2.66,1.89
	C8.3,5.13,8.04,5.45,7.8,5.76c-0.59,0.77-0.69,1.6-0.24,2.48c0.03,0.05,0.05,0.1,0.07,0.15C7.64,8.42,7.63,8.44,7.63,8.52z"/>
<path class="st0" d="M4.39,15.94c0.15-0.73,0.28-1.43,0.44-2.12c0.04-0.15,0.18-0.31,0.32-0.4c0.93-0.66,1.89-1.29,2.81-1.97
	c0.37-0.27,0.72-0.61,1.01-0.97c0.58-0.71,0.78-1.51,0.44-2.39C9.38,7.96,9.36,7.83,9.31,7.64c0.73,0.6,1.21,2.06,0.75,3.06
	c-0.33,0.74-0.84,1.33-1.44,1.84c-0.55,0.46-1.13,0.89-1.69,1.34C6.11,14.54,5.29,15.21,4.39,15.94z"/>
<path class="st0" d="M3.53,4.76C3.57,4.32,3.82,4.1,4.09,3.88c0.2-0.17,0.42-0.35,0.55-0.57c0.47-0.76,1.12-1.01,1.94-0.64
	c0.46,0.2,0.88,0.49,1.36,0.77C7.08,4.12,6.5,4.88,6.29,5.94C6.06,5.61,5.89,5.32,5.68,5.06C5.01,4.22,4.47,4.13,3.53,4.76z
	 M6.11,3.21c-0.2-0.12-0.33-0.26-0.43-0.24c-0.11,0.01-0.2,0.18-0.3,0.27c0.11,0.1,0.22,0.25,0.34,0.27
	C5.81,3.52,5.93,3.36,6.11,3.21z"/>
<linearGradient id="SVGID_1_" gradientUnits="userSpaceOnUse" x1="4.8418" y1="10.2222" x2="9.0692" y2="10.2222">
	<stop  offset="0" style="stop-color:#FAC552"/>
	<stop  offset="1" style="stop-color:#F16824"/>
</linearGradient>
<path class="st1" d="M4.84,12.92c0.09-0.45,0.12-0.81,0.23-1.14c0.06-0.18,0.24-0.36,0.41-0.47c0.66-0.45,1.36-0.83,1.99-1.33
	c0.77-0.61,1.17-1.44,1.1-2.47c0.67,0.82,0.67,1.91-0.05,2.72C8.1,10.7,7.61,11.12,7.1,11.48C6.4,11.98,5.65,12.42,4.84,12.92z"/>
<linearGradient id="SVGID_00000137098449651520606190000018195567058957066916_" gradientUnits="userSpaceOnUse" x1="7.6406" y1="5.8859" x2="11.8787" y2="5.8859">
	<stop  offset="0" style="stop-color:#FAC552"/>
	<stop  offset="1" style="stop-color:#F16824"/>
</linearGradient>
<path style="fill-rule:evenodd;clip-rule:evenodd;fill:url(#SVGID_00000137098449651520606190000018195567058957066916_);" d="
	M8.06,8.52C7.55,7.84,7.48,7,7.97,6.33c0.38-0.51,0.83-1,1.34-1.39c0.8-0.6,1.67-1.11,2.57-1.69c-0.03,0.26-0.05,0.44-0.06,0.61
	c-0.06,0.56-0.27,0.98-0.85,1.24c-0.62,0.28-1.19,0.69-1.73,1.12C8.39,6.89,8.15,7.42,8.06,8.52z"/>
</svg>
